<svg xmlns="http://www.w3.org/2000/svg" viewBox="0 0 64 64">
  <circle cx="32" cy="32" r="30" fill="#fff" stroke="#1a1a2e" stroke-width="2.5"/>
  <path d="M32 4 L38 18 L32 14 L26 18 Z" fill="#1a1a2e"/>
  <path d="M32 60 L38 46 L32 50 L26 46 Z" fill="#1a1a2e"/>
  <path d="M4 32 L18 26 L14 32 L18 38 Z" fill="#1a1a2e"/>
  <path d="M60 32 L46 26 L50 32 L46 38 Z" fill="#1a1a2e"/>
  <path d="M10 14 L22 20 L18 16 Z" fill="#1a1a2e"/>
  <path d="M54 14 L42 20 L46 16 Z" fill="#1a1a2e"/>
  <path d="M10 50 L22 44 L18 48 Z" fill="#1a1a2e"/>
  <path d="M54 50 L42 44 L46 48 Z" fill="#1a1a2e"/>
  <polygon points="32,12 40,20 38,30 32,34 26,30 24,20" fill="#1a1a2e"/>
  <polygon points="44,24 52,32 48,42 40,42 36,34 40,26" fill="#1a1a2e"/>
  <polygon points="20,24 12,32 16,42 24,42 28,34 24,26" fill="#1a1a2e"/>
  <polygon points="24,46 28,38 36,38 40,46 36,54 28,54" fill="#1a1a2e"/>
  <line x1="32" y1="12" x2="32" y2="4" stroke="#1a1a2e" stroke-width="1.5"/>
  <line x1="44" y1="24" x2="54" y2="14" stroke="#1a1a2e" stroke-width="1.5"/>
  <line x1="20" y1="24" x2="10" y2="14" stroke="#1a1a2e" stroke-width="1.5"/>
  <line x1="52" y1="32" x2="60" y2="32" stroke="#1a1a2e" stroke-width="1.5"/>
  <line x1="12" y1="32" x2="4" y2="32" stroke="#1a1a2e" stroke-width="1.5"/>
  <line x1="48" y1="42" x2="54" y2="50" stroke="#1a1a2e" stroke-width="1.5"/>
  <line x1="16" y1="42" x2="10" y2="50" stroke="#1a1a2e" stroke-width="1.5"/>
  <line x1="36" y1="54" x2="38" y2="60" stroke="#1a1a2e" stroke-width="1.5"/>
  <line x1="28" y1="54" x2="26" y2="60" stroke="#1a1a2e" stroke-width="1.5"/>
</svg>
